<svg xmlns="http://www.w3.org/2000/svg" viewBox="0 0 64 80" x="0px" y="0px"><title>E - Commerce</title><path d="M31.99979,50.73067c1.01445.55858,16.46842-23.69064,16.41347-31.26684C48.413,10.93713,41.046,4,31.99979,4s-16.4132,6.93713-16.4132,15.46357c0,8.21663,14.95378,29.91762,15.59353,30.83728A.983.983,0,0,0,31.99979,50.73067Zm0-38.09423a7.9177,7.9177,0,0,1,7.9067,7.9067C39.51428,31.01881,24.48372,31.016,24.09307,20.543A7.91769,7.91769,0,0,1,31.99979,12.63644Z"/><path d="M31.99979,52.23c-4.1283,0-11.10539.81967-11.10539,3.8684-.03159,5.19879,22.23381,5.20532,22.21078.00014C43.10518,53.04971,36.12808,52.23,31.99979,52.23Z"/><path d="M31.99979,26.45067c7.80751-.24653,7.80568-11.56969-.00013-11.81506C24.19228,14.88214,24.19411,26.20531,31.99979,26.45067Z"/><text x="0" y="79" fill="#000000" font-size="5px" font-weight="bold" font-family="'Helvetica Neue', Helvetica, Arial-Unicode, Arial, Sans-serif">Created by metami septiana</text><text x="0" y="84" fill="#000000" font-size="5px" font-weight="bold" font-family="'Helvetica Neue', Helvetica, Arial-Unicode, Arial, Sans-serif">from the Noun Project</text></svg>