<?xml version="1.0" encoding="UTF-8"?>
<!DOCTYPE svg PUBLIC "-//W3C//DTD SVG 1.1//EN" "http://www.w3.org/Graphics/SVG/1.1/DTD/svg11.dtd">
<svg xmlns="http://www.w3.org/2000/svg" version="1.1" width="381px" height="324px" style="shape-rendering:geometricPrecision; text-rendering:geometricPrecision; image-rendering:optimizeQuality; fill-rule:evenodd; clip-rule:evenodd" xmlns:xlink="http://www.w3.org/1999/xlink">
<g><path style="opacity:1" fill="#fefefe" d="M -0.5,-0.5 C 126.5,-0.5 253.5,-0.5 380.5,-0.5C 380.5,107.167 380.5,214.833 380.5,322.5C 253.5,322.5 126.5,322.5 -0.5,322.5C -0.5,214.833 -0.5,107.167 -0.5,-0.5 Z"/></g>
<g><path style="opacity:1" fill="#e3fbfd" d="M 176.5,45.5 C 189.994,44.3395 203.66,44.1728 217.5,45C 220.991,45.738 224.325,46.5713 227.5,47.5C 223.785,47.577 220.119,47.2436 216.5,46.5C 203.344,45.5044 190.01,45.1711 176.5,45.5 Z"/></g>
<g><path style="opacity:1" fill="#68bbe6" d="M 85.5,45.5 C 108.006,45.1692 130.34,45.5026 152.5,46.5C 151.167,46.5 149.833,46.5 148.5,46.5C 127.833,46.5 107.167,46.5 86.5,46.5C 86.5,53.1667 86.5,59.8333 86.5,66.5C 107.833,66.5 129.167,66.5 150.5,66.5C 151.167,66.5 151.833,66.5 152.5,66.5C 152.5,66.8333 152.5,67.1667 152.5,67.5C 130.167,67.5 107.833,67.5 85.5,67.5C 85.5,60.1667 85.5,52.8333 85.5,45.5 Z"/></g>
<g><path style="opacity:1" fill="#71bde8" d="M 176.5,45.5 C 190.01,45.1711 203.344,45.5044 216.5,46.5C 215.167,46.5 213.833,46.5 212.5,46.5C 201.654,46.1722 190.987,46.5056 180.5,47.5C 178.62,47.7709 177.287,47.1042 176.5,45.5 Z"/></g>
<g><path style="opacity:1" fill="#148fce" d="M 148.5,46.5 C 151.167,47.5 153.833,48.5 156.5,49.5C 154.856,49.2865 153.356,49.6198 152,50.5C 150.316,48.9344 148.316,47.9344 146,47.5C 129.521,48.1458 113.021,48.8125 96.5,49.5C 93.8929,50.3184 91.2263,50.8184 88.5,51C 87.5308,55.7367 87.1975,60.57 87.5,65.5C 108.673,65.1694 129.673,65.5027 150.5,66.5C 129.167,66.5 107.833,66.5 86.5,66.5C 86.5,59.8333 86.5,53.1667 86.5,46.5C 107.167,46.5 127.833,46.5 148.5,46.5 Z"/></g>
<g><path style="opacity:1" fill="#3c99c6" d="M 148.5,46.5 C 149.833,46.5 151.167,46.5 152.5,46.5C 160.833,47.0406 168.5,49.3739 175.5,53.5C 173.5,53.5 171.5,53.5 169.5,53.5C 165.621,51.0232 161.287,49.6898 156.5,49.5C 153.833,48.5 151.167,47.5 148.5,46.5 Z"/></g>
<g><path style="opacity:1" fill="#defafe" d="M 85.5,45.5 C 107.996,44.337 130.663,44.1704 153.5,45C 158.454,46.1844 163.454,47.1844 168.5,48C 174.744,51.5241 181.077,54.8574 187.5,58C 189.174,59.5059 190.174,61.3393 190.5,63.5C 190.167,63.5 189.833,63.5 189.5,63.5C 185.698,59.7629 181.365,56.7629 176.5,54.5C 176.5,53.8333 176.167,53.5 175.5,53.5C 168.5,49.3739 160.833,47.0406 152.5,46.5C 130.34,45.5026 108.006,45.1692 85.5,45.5 Z"/></g>
<g><path style="opacity:1" fill="#3f98c8" d="M 212.5,46.5 C 213.833,46.5 215.167,46.5 216.5,46.5C 220.119,47.2436 223.785,47.577 227.5,47.5C 231.967,48.6953 236.301,50.0287 240.5,51.5C 231.082,49.8272 221.748,48.1605 212.5,46.5 Z"/></g>
<g><path style="opacity:1" fill="#49a1d0" d="M 180.5,47.5 C 183.321,47.5387 185.988,48.2054 188.5,49.5C 190.493,51.4986 192.827,52.9986 195.5,54C 196.337,55.0113 196.67,56.1779 196.5,57.5C 196.167,57.5 195.833,57.5 195.5,57.5C 190.682,53.922 185.682,50.5887 180.5,47.5 Z"/></g>
<g><path style="opacity:1" fill="#0a95db" d="M 156.5,49.5 C 161.287,49.6898 165.621,51.0232 169.5,53.5C 167.234,53.1412 165.401,53.8078 164,55.5C 157.611,55.7441 151.111,55.0775 144.5,53.5C 144.5,54.5 144.5,55.5 144.5,56.5C 147.392,56.7211 150.059,57.5544 152.5,59C 149.99,59.3763 147.657,60.2096 145.5,61.5C 148.857,61.8088 152.19,62.1422 155.5,62.5C 155.67,61.1779 155.337,60.0113 154.5,59C 157.551,58.1433 160.217,58.81 162.5,61C 161.692,61.3076 161.025,61.8076 160.5,62.5C 164.171,62.7653 167.171,64.2653 169.5,67C 164.166,67.2495 164.166,68.4161 169.5,70.5C 168.167,70.5 166.833,70.5 165.5,70.5C 162.008,66.9957 157.675,65.6623 152.5,66.5C 151.833,66.5 151.167,66.5 150.5,66.5C 129.673,65.5027 108.673,65.1694 87.5,65.5C 87.1975,60.57 87.5308,55.7367 88.5,51C 91.2263,50.8184 93.8929,50.3184 96.5,49.5C 113.021,48.8125 129.521,48.1458 146,47.5C 148.316,47.9344 150.316,48.9344 152,50.5C 153.356,49.6198 154.856,49.2865 156.5,49.5 Z"/></g>
<g><path style="opacity:1" fill="#0d94d9" d="M 180.5,47.5 C 190.987,46.5056 201.654,46.1722 212.5,46.5C 221.748,48.1605 231.082,49.8272 240.5,51.5C 243.409,53.3561 246.409,55.0227 249.5,56.5C 246.426,56.1274 243.426,55.4608 240.5,54.5C 240.579,55.9305 240.246,57.2638 239.5,58.5C 236.663,59.3309 234.496,60.9976 233,63.5C 231.22,62.4063 229.386,61.4063 227.5,60.5C 230.5,59.6667 233.5,58.8333 236.5,58C 234.285,56.6093 234.285,54.9426 236.5,53C 235.833,52.8333 235.167,52.6667 234.5,52.5C 230.301,54.1227 225.968,55.1227 221.5,55.5C 215.129,53.5473 209.129,54.2139 203.5,57.5C 202.614,58.325 202.281,59.325 202.5,60.5C 201.358,58.0283 199.358,57.0283 196.5,57.5C 196.67,56.1779 196.337,55.0113 195.5,54C 192.827,52.9986 190.493,51.4986 188.5,49.5C 185.988,48.2054 183.321,47.5387 180.5,47.5 Z"/></g>
<g><path style="opacity:1" fill="#ccf0fa" d="M 252.5,55.5 C 255.641,55.949 258.641,56.949 261.5,58.5C 262.425,59.3569 263.092,60.3569 263.5,61.5C 259.634,59.736 255.967,57.736 252.5,55.5 Z"/></g>
<g><path style="opacity:1" fill="#3394c7" d="M 176.5,54.5 C 181.365,56.7629 185.698,59.7629 189.5,63.5C 183.899,62.2097 179.566,59.2097 176.5,54.5 Z"/></g>
<g><path style="opacity:1" fill="#0b94de" d="M 249.5,56.5 C 249.953,57.4584 250.619,58.2917 251.5,59C 253.382,59.1981 255.048,59.6981 256.5,60.5C 255.282,61.1614 253.949,61.8281 252.5,62.5C 253.689,63.4287 255.022,63.762 256.5,63.5C 256.477,65.5996 257.144,67.4329 258.5,69C 258.167,69.5 257.833,70 257.5,70.5C 256.614,69.675 256.281,68.675 256.5,67.5C 253.507,66.8654 250.507,66.6987 247.5,67C 245.405,70.5283 242.405,71.3616 238.5,69.5C 241.234,67.1787 241.068,65.1787 238,63.5C 235.761,66.962 232.594,68.2954 228.5,67.5C 228.5,66.1667 228.5,64.8333 228.5,63.5C 224.743,63.7136 224.076,62.7136 226.5,60.5C 220.724,58.0448 214.724,57.2114 208.5,58C 206.74,58.9653 206.406,60.132 207.5,61.5C 210.758,60.5827 214.091,60.2493 217.5,60.5C 217.433,61.9587 217.766,63.2921 218.5,64.5C 213.786,64.8266 209.12,64.4933 204.5,63.5C 203.388,62.7348 202.721,61.7348 202.5,60.5C 202.281,59.325 202.614,58.325 203.5,57.5C 209.129,54.2139 215.129,53.5473 221.5,55.5C 225.968,55.1227 230.301,54.1227 234.5,52.5C 235.167,52.6667 235.833,52.8333 236.5,53C 234.285,54.9426 234.285,56.6093 236.5,58C 233.5,58.8333 230.5,59.6667 227.5,60.5C 229.386,61.4063 231.22,62.4063 233,63.5C 234.496,60.9976 236.663,59.3309 239.5,58.5C 240.246,57.2638 240.579,55.9305 240.5,54.5C 243.426,55.4608 246.426,56.1274 249.5,56.5 Z"/></g>
<g><path style="opacity:1" fill="#0b94dc" d="M 169.5,53.5 C 171.5,53.5 173.5,53.5 175.5,53.5C 176.167,53.5 176.5,53.8333 176.5,54.5C 179.566,59.2097 183.899,62.2097 189.5,63.5C 189.523,65.9267 190.023,68.26 191,70.5C 191.718,69.5494 192.551,69.3828 193.5,70C 193.846,73.6383 195.68,76.1383 199,77.5C 201.215,82.5997 203.048,87.9331 204.5,93.5C 204.729,103.532 204.396,113.532 203.5,123.5C 200.215,123.731 197.715,122.397 196,119.5C 194.113,121.026 193.113,123.026 193,125.5C 192.333,124.167 191.667,124.167 191,125.5C 190.78,122.601 191.28,119.767 192.5,117C 192.167,115.833 191.833,114.667 191.5,113.5C 190.063,116.041 188.897,118.708 188,121.5C 187.503,119.19 187.337,116.857 187.5,114.5C 187.5,112.833 187.5,111.167 187.5,109.5C 189.415,99.0204 187.248,89.3537 181,80.5C 179.989,79.6634 178.822,79.33 177.5,79.5C 176.881,76.367 175.214,73.867 172.5,72C 172.645,71.228 172.978,70.5613 173.5,70C 172.181,69.805 170.847,69.9717 169.5,70.5C 164.166,68.4161 164.166,67.2495 169.5,67C 167.171,64.2653 164.171,62.7653 160.5,62.5C 161.025,61.8076 161.692,61.3076 162.5,61C 160.217,58.81 157.551,58.1433 154.5,59C 155.337,60.0113 155.67,61.1779 155.5,62.5C 152.19,62.1422 148.857,61.8088 145.5,61.5C 147.657,60.2096 149.99,59.3763 152.5,59C 150.059,57.5544 147.392,56.7211 144.5,56.5C 144.5,55.5 144.5,54.5 144.5,53.5C 151.111,55.0775 157.611,55.7441 164,55.5C 165.401,53.8078 167.234,53.1412 169.5,53.5 Z"/></g>
<g><path style="opacity:1" fill="#3b9cd2" d="M 196.5,57.5 C 199.358,57.0283 201.358,58.0283 202.5,60.5C 202.721,61.7348 203.388,62.7348 204.5,63.5C 209.12,64.4933 213.786,64.8266 218.5,64.5C 220.924,64.1924 223.257,64.5258 225.5,65.5C 224.624,66.2508 223.624,66.7508 222.5,67C 224.744,67.0496 226.411,67.8829 227.5,69.5C 226.833,69.5 226.167,69.5 225.5,69.5C 218.724,68.0091 211.724,67.1758 204.5,67C 201.998,63.6675 199.332,60.5008 196.5,57.5 Z"/></g>
<g><path style="opacity:1" fill="#2594ce" d="M 240.5,51.5 C 244.512,52.6151 248.512,53.9484 252.5,55.5C 255.967,57.736 259.634,59.736 263.5,61.5C 264.833,62.5 266.167,63.5 267.5,64.5C 268.6,65.6049 269.267,66.9382 269.5,68.5C 268.193,67.8466 266.86,67.1799 265.5,66.5C 264.246,68.2592 264.579,69.7592 266.5,71C 264.833,71.6667 263.167,71.6667 261.5,71C 261.285,68.4408 261.285,65.6075 261.5,62.5C 260.127,62.6567 258.793,62.49 257.5,62C 258.712,60.8932 258.379,60.3932 256.5,60.5C 255.048,59.6981 253.382,59.1981 251.5,59C 250.619,58.2917 249.953,57.4584 249.5,56.5C 246.409,55.0227 243.409,53.3561 240.5,51.5 Z"/></g>
<g><path style="opacity:1" fill="#e2fcfe" d="M 195.5,57.5 C 195.833,57.5 196.167,57.5 196.5,57.5C 199.332,60.5008 201.998,63.6675 204.5,67C 211.724,67.1758 218.724,68.0091 225.5,69.5C 218.169,69.0478 210.835,68.5478 203.5,68C 202,65.1667 199.833,63 197,61.5C 196.209,60.255 195.709,58.9217 195.5,57.5 Z"/></g>
<g><path style="opacity:1" fill="#3895c2" d="M 152.5,67.5 C 152.5,67.1667 152.5,66.8333 152.5,66.5C 157.675,65.6623 162.008,66.9957 165.5,70.5C 161.263,69.119 156.93,68.119 152.5,67.5 Z"/></g>
<g><path style="opacity:1" fill="#489dca" d="M 267.5,64.5 C 271.125,67.1101 274.792,69.7767 278.5,72.5C 279.973,74.3947 281.64,76.0613 283.5,77.5C 282.448,77.6495 281.448,77.4828 280.5,77C 277.243,73.5687 273.576,70.7354 269.5,68.5C 269.267,66.9382 268.6,65.6049 267.5,64.5 Z"/></g>
<g><path style="opacity:1" fill="#74bfe5" d="M 232.5,70.5 C 234.565,70.5172 236.565,70.8505 238.5,71.5C 239.167,72.1667 239.833,72.8333 240.5,73.5C 237.458,73.2671 234.792,72.2671 232.5,70.5 Z"/></g>
<g><path style="opacity:1" fill="#5faed6" d="M 165.5,71.5 C 168.812,71.149 171.145,72.4823 172.5,75.5C 170.142,74.1261 167.808,72.7928 165.5,71.5 Z"/></g>
<g><path style="opacity:1" fill="#e3fcfe" d="M 278.5,72.5 C 280.258,72.8769 281.925,73.5435 283.5,74.5C 284.859,76.6922 286.692,78.3589 289,79.5C 292.182,82.5269 294.349,86.1935 295.5,90.5C 293.527,87.8605 291.194,85.5272 288.5,83.5C 287.581,80.9108 285.914,78.9108 283.5,77.5C 281.64,76.0613 279.973,74.3947 278.5,72.5 Z"/></g>
<g><path style="opacity:1" fill="#d2f1fd" d="M 106.5,76.5 C 107.833,103.992 108.5,131.825 108.5,160C 108.5,188.175 107.833,216.008 106.5,243.5C 106.5,188.167 106.5,132.833 106.5,77.5C 106.5,77.1667 106.5,76.8333 106.5,76.5 Z"/></g>
<g><path style="opacity:1" fill="#0b95d9" d="M 91.5,78.5 C 91.8245,105.878 91.4912,133.211 90.5,160.5C 93.1667,163.833 93.1667,167.167 90.5,170.5C 91.3192,187.123 91.8192,203.789 92,220.5C 92.9246,221.047 93.7579,221.713 94.5,222.5C 93.3595,223.425 93.3595,224.259 94.5,225C 93.3333,225.5 92.5,226.333 92,227.5C 91.1072,226.289 90.2739,226.289 89.5,227.5C 88.6906,229.071 88.3573,230.738 88.5,232.5C 87.5386,230.735 87.2053,228.735 87.5,226.5C 88.0089,177.209 88.0089,127.875 87.5,78.5C 88.8333,78.5 90.1667,78.5 91.5,78.5 Z"/></g>
<g><path style="opacity:1" fill="#0a95dd" d="M 91.5,78.5 C 95.8333,78.5 100.167,78.5 104.5,78.5C 104.5,132.5 104.5,186.5 104.5,240.5C 103.167,240.5 101.833,240.5 100.5,240.5C 97.1545,238.319 93.4879,236.319 89.5,234.5C 88.7025,234.043 88.3691,233.376 88.5,232.5C 88.3573,230.738 88.6906,229.071 89.5,227.5C 90.2739,226.289 91.1072,226.289 92,227.5C 92.5,226.333 93.3333,225.5 94.5,225C 93.3595,224.259 93.3595,223.425 94.5,222.5C 93.7579,221.713 92.9246,221.047 92,220.5C 91.8192,203.789 91.3192,187.123 90.5,170.5C 93.1667,167.167 93.1667,163.833 90.5,160.5C 91.4912,133.211 91.8245,105.878 91.5,78.5 Z"/></g>
<g><path style="opacity:1" fill="#e2fbfd" d="M 85.5,67.5 C 107.833,67.5 130.167,67.5 152.5,67.5C 156.93,68.119 161.263,69.119 165.5,70.5C 165.5,70.8333 165.5,71.1667 165.5,71.5C 167.808,72.7928 170.142,74.1261 172.5,75.5C 175.634,78.4202 178.301,81.7535 180.5,85.5C 174.799,84.9735 170.966,81.9735 169,76.5C 164.811,72.8215 159.977,70.3215 154.5,69C 131.33,68.8321 108.33,68.3321 85.5,67.5 Z"/></g>
<g><path style="opacity:1" fill="#71bee2" d="M 283.5,77.5 C 285.914,78.9108 287.581,80.9108 288.5,83.5C 286.833,82.1667 285.167,80.8333 283.5,79.5C 283.5,78.8333 283.5,78.1667 283.5,77.5 Z"/></g>
<g><path style="opacity:1" fill="#80c7e9" d="M 106.5,76.5 C 106.5,76.8333 106.5,77.1667 106.5,77.5C 106.167,77.5 105.833,77.5 105.5,77.5C 99.1667,77.5 92.8333,77.5 86.5,77.5C 86.5,127.167 86.5,176.833 86.5,226.5C 86.5,229.167 86.5,231.833 86.5,234.5C 85.5027,213.006 85.1693,191.34 85.5,169.5C 85.5,168.167 85.5,166.833 85.5,165.5C 85.5,135.833 85.5,106.167 85.5,76.5C 92.5,76.5 99.5,76.5 106.5,76.5 Z"/></g>
<g><path style="opacity:1" fill="#71bce0" d="M 200.5,77.5 C 202.245,79.0326 203.245,81.0326 203.5,83.5C 201.755,81.9674 200.755,79.9674 200.5,77.5 Z"/></g>
<g><path style="opacity:1" fill="#3f9aca" d="M 238.5,71.5 C 240.927,71.523 243.26,72.023 245.5,73C 247.612,75.3162 250.278,76.6495 253.5,77C 254.167,78 254.833,79 255.5,80C 263.369,84.077 269.702,89.7437 274.5,97C 275.448,97.4828 276.448,97.6495 277.5,97.5C 280.144,100.938 281.811,104.938 282.5,109.5C 282.167,109.5 281.833,109.5 281.5,109.5C 277.634,103.289 272.968,97.6223 267.5,92.5C 262.456,87.1355 256.79,82.4689 250.5,78.5C 246.832,77.3326 243.498,75.666 240.5,73.5C 239.833,72.8333 239.167,72.1667 238.5,71.5 Z"/></g>
<g><path style="opacity:1" fill="#1d8ac1" d="M 105.5,77.5 C 105.5,77.8333 105.5,78.1667 105.5,78.5C 105.167,78.5 104.833,78.5 104.5,78.5C 100.167,78.5 95.8333,78.5 91.5,78.5C 90.1667,78.5 88.8333,78.5 87.5,78.5C 88.0089,127.875 88.0089,177.209 87.5,226.5C 87.1667,226.5 86.8333,226.5 86.5,226.5C 86.5,176.833 86.5,127.167 86.5,77.5C 92.8333,77.5 99.1667,77.5 105.5,77.5 Z"/></g>
<g><path style="opacity:1" fill="#2a90c8" d="M 187.5,109.5 C 187.806,106.615 187.473,103.948 186.5,101.5C 186.258,97.521 185.258,93.8544 183.5,90.5C 182.687,88.7392 181.687,87.0725 180.5,85.5C 178.301,81.7535 175.634,78.4202 172.5,75.5C 171.145,72.4823 168.812,71.149 165.5,71.5C 165.5,71.1667 165.5,70.8333 165.5,70.5C 166.833,70.5 168.167,70.5 169.5,70.5C 170.847,69.9717 172.181,69.805 173.5,70C 172.978,70.5613 172.645,71.228 172.5,72C 175.214,73.867 176.881,76.367 177.5,79.5C 178.822,79.33 179.989,79.6634 181,80.5C 187.248,89.3537 189.415,99.0204 187.5,109.5 Z"/></g>
<g><path style="opacity:1" fill="#3e98c6" d="M 283.5,79.5 C 285.167,80.8333 286.833,82.1667 288.5,83.5C 291.194,85.5272 293.527,87.8605 295.5,90.5C 296.11,91.391 296.443,92.391 296.5,93.5C 293.234,93.5674 291.734,91.9008 292,88.5C 288.264,86.2663 285.43,83.2663 283.5,79.5 Z"/></g>
<g><path style="opacity:1" fill="#e6fcfe" d="M 206.5,89.5 C 207.315,90.4293 208.148,91.4293 209,92.5C 209.667,101.167 209.667,109.833 209,118.5C 208.623,119.942 207.79,120.942 206.5,121.5C 207.833,110.833 207.833,100.167 206.5,89.5 Z"/></g>
<g><path style="opacity:1" fill="#e1fafe" d="M 183.5,90.5 C 185.258,93.8544 186.258,97.521 186.5,101.5C 186.587,106.537 186.254,111.537 185.5,116.5C 185.5,117.167 185.167,117.5 184.5,117.5C 184.716,108.467 184.383,99.467 183.5,90.5 Z"/></g>
<g><path style="opacity:1" fill="#e0fafd" d="M 302.5,101.5 C 303.239,101.369 303.906,101.536 304.5,102C 310.178,110.555 313.178,120.055 313.5,130.5C 312.569,126.707 311.235,123.041 309.5,119.5C 308.143,113.135 305.81,107.135 302.5,101.5 Z"/></g>
<g><path style="opacity:1" fill="#dffbfe" d="M 267.5,92.5 C 272.968,97.6223 277.634,103.289 281.5,109.5C 277.55,104.719 273.05,100.385 268,96.5C 267.51,95.2068 267.343,93.8734 267.5,92.5 Z"/></g>
<g><path style="opacity:1" fill="#3e97c9" d="M 189.5,63.5 C 189.833,63.5 190.167,63.5 190.5,63.5C 194.825,67.4918 198.158,72.1585 200.5,77.5C 200.755,79.9674 201.755,81.9674 203.5,83.5C 204.486,85.4261 205.486,87.4261 206.5,89.5C 207.833,100.167 207.833,110.833 206.5,121.5C 206.011,122.995 205.345,124.329 204.5,125.5C 205.721,114.682 205.721,104.015 204.5,93.5C 203.048,87.9331 201.215,82.5997 199,77.5C 195.68,76.1383 193.846,73.6383 193.5,70C 192.551,69.3828 191.718,69.5494 191,70.5C 190.023,68.26 189.523,65.9267 189.5,63.5 Z"/></g>
<g><path style="opacity:1" fill="#0c94db" d="M 256.5,60.5 C 258.379,60.3932 258.712,60.8932 257.5,62C 258.793,62.49 260.127,62.6567 261.5,62.5C 261.285,65.6075 261.285,68.4408 261.5,71C 263.167,71.6667 264.833,71.6667 266.5,71C 264.579,69.7592 264.246,68.2592 265.5,66.5C 266.86,67.1799 268.193,67.8466 269.5,68.5C 273.576,70.7354 277.243,73.5687 280.5,77C 281.448,77.4828 282.448,77.6495 283.5,77.5C 283.5,78.1667 283.5,78.8333 283.5,79.5C 285.43,83.2663 288.264,86.2663 292,88.5C 291.734,91.9008 293.234,93.5674 296.5,93.5C 297.036,96.5547 297.869,99.5547 299,102.5C 299.908,104.439 301.408,105.439 303.5,105.5C 302.434,111.297 300.767,111.63 298.5,106.5C 297.264,105.754 295.93,105.421 294.5,105.5C 293.953,109.29 295.62,111.29 299.5,111.5C 302.903,114.186 306.236,116.853 309.5,119.5C 309.533,126.273 310.867,132.607 313.5,138.5C 312.958,141.688 311.958,144.688 310.5,147.5C 309.127,147.343 307.793,147.51 306.5,148C 305.194,151.139 302.861,152.972 299.5,153.5C 299.023,154.931 298.357,156.264 297.5,157.5C 296.833,152.015 296.167,146.681 295.5,141.5C 295.167,141.5 294.833,141.5 294.5,141.5C 295.04,134.008 293.373,127.174 289.5,121C 290.672,120.581 291.672,119.915 292.5,119C 290.935,117.588 289.269,116.421 287.5,115.5C 285.367,113.909 283.701,111.909 282.5,109.5C 281.811,104.938 280.144,100.938 277.5,97.5C 276.448,97.6495 275.448,97.4828 274.5,97C 269.702,89.7437 263.369,84.077 255.5,80C 254.833,79 254.167,78 253.5,77C 250.278,76.6495 247.612,75.3162 245.5,73C 243.26,72.023 240.927,71.523 238.5,71.5C 236.565,70.8505 234.565,70.5172 232.5,70.5C 230.708,70.634 229.042,70.3007 227.5,69.5C 226.411,67.8829 224.744,67.0496 222.5,67C 223.624,66.7508 224.624,66.2508 225.5,65.5C 223.257,64.5258 220.924,64.1924 218.5,64.5C 217.766,63.2921 217.433,61.9587 217.5,60.5C 214.091,60.2493 210.758,60.5827 207.5,61.5C 206.406,60.132 206.74,58.9653 208.5,58C 214.724,57.2114 220.724,58.0448 226.5,60.5C 224.076,62.7136 224.743,63.7136 228.5,63.5C 228.5,64.8333 228.5,66.1667 228.5,67.5C 232.594,68.2954 235.761,66.962 238,63.5C 241.068,65.1787 241.234,67.1787 238.5,69.5C 242.405,71.3616 245.405,70.5283 247.5,67C 250.507,66.6987 253.507,66.8654 256.5,67.5C 256.281,68.675 256.614,69.675 257.5,70.5C 257.833,70 258.167,69.5 258.5,69C 257.144,67.4329 256.477,65.5996 256.5,63.5C 255.022,63.762 253.689,63.4287 252.5,62.5C 253.949,61.8281 255.282,61.1614 256.5,60.5 Z"/></g>
<g><path style="opacity:1" fill="#2a97d1" d="M 296.5,93.5 C 298.885,95.8838 300.885,98.5505 302.5,101.5C 305.81,107.135 308.143,113.135 309.5,119.5C 306.236,116.853 302.903,114.186 299.5,111.5C 295.62,111.29 293.953,109.29 294.5,105.5C 295.93,105.421 297.264,105.754 298.5,106.5C 300.767,111.63 302.434,111.297 303.5,105.5C 301.408,105.439 299.908,104.439 299,102.5C 297.869,99.5547 297.036,96.5547 296.5,93.5 Z"/></g>
<g><path style="opacity:1" fill="#5caddc" d="M 282.5,109.5 C 283.701,111.909 285.367,113.909 287.5,115.5C 287.5,116.833 287.5,118.167 287.5,119.5C 284.986,116.636 283.32,113.302 282.5,109.5 Z"/></g>
<g><path style="opacity:1" fill="#5aa8d2" d="M 186.5,101.5 C 187.473,103.948 187.806,106.615 187.5,109.5C 187.5,111.167 187.5,112.833 187.5,114.5C 186.833,115.167 186.167,115.833 185.5,116.5C 186.254,111.537 186.587,106.537 186.5,101.5 Z"/></g>
<g><path style="opacity:1" fill="#2993d0" d="M 287.5,115.5 C 289.269,116.421 290.935,117.588 292.5,119C 291.672,119.915 290.672,120.581 289.5,121C 293.373,127.174 295.04,134.008 294.5,141.5C 293.833,139.833 293.167,138.167 292.5,136.5C 292.201,130.947 290.534,125.947 287.5,121.5C 287.5,120.833 287.5,120.167 287.5,119.5C 287.5,118.167 287.5,116.833 287.5,115.5 Z"/></g>
<g><path style="opacity:1" fill="#1195d8" d="M 204.5,93.5 C 205.721,104.015 205.721,114.682 204.5,125.5C 204.167,125.5 203.833,125.5 203.5,125.5C 202.833,126.167 202.167,126.833 201.5,127.5C 201.719,126.325 201.386,125.325 200.5,124.5C 198.826,125.88 197.16,127.213 195.5,128.5C 192.673,126.837 190.173,127.17 188,129.5C 187.632,128.09 186.799,127.09 185.5,126.5C 184.102,128.797 182.436,130.963 180.5,133C 180.833,133.333 181.167,133.667 181.5,134C 178.649,135.742 177.982,138.075 179.5,141C 179,141.5 178.5,142 178,142.5C 176.956,141.377 176.29,140.044 176,138.5C 174.171,138.565 172.338,138.898 170.5,139.5C 171.5,138.167 172.5,136.833 173.5,135.5C 180.236,133.389 183.57,128.723 183.5,121.5C 183.833,120.167 184.167,118.833 184.5,117.5C 185.167,117.5 185.5,117.167 185.5,116.5C 186.167,115.833 186.833,115.167 187.5,114.5C 187.337,116.857 187.503,119.19 188,121.5C 188.897,118.708 190.063,116.041 191.5,113.5C 191.833,114.667 192.167,115.833 192.5,117C 191.28,119.767 190.78,122.601 191,125.5C 191.667,124.167 192.333,124.167 193,125.5C 193.113,123.026 194.113,121.026 196,119.5C 197.715,122.397 200.215,123.731 203.5,123.5C 204.396,113.532 204.729,103.532 204.5,93.5 Z"/></g>
<g><path style="opacity:1" fill="#def7fd" d="M 287.5,121.5 C 290.534,125.947 292.201,130.947 292.5,136.5C 291.21,135.942 290.377,134.942 290,133.5C 288.717,129.586 287.884,125.586 287.5,121.5 Z"/></g>
<g><path style="opacity:1" fill="#c9c9c9" d="M 336.5,132.5 C 336.167,132.5 335.833,132.5 335.5,132.5C 337.153,128.673 339.819,126.173 343.5,125C 341.667,127.998 339.334,130.498 336.5,132.5 Z"/></g>
<g><path style="opacity:1" fill="#0b94dd" d="M 201.5,127.5 C 200.772,129.512 199.938,131.512 199,133.5C 194.411,137.779 192.244,142.779 192.5,148.5C 191.402,149.601 191.235,150.934 192,152.5C 194.381,154.034 194.881,156.034 193.5,158.5C 192.252,157.96 191.085,157.293 190,156.5C 189,156.833 188,157.167 187,157.5C 183.667,156.833 180.333,156.167 177,155.5C 175.62,158.058 174.12,158.058 172.5,155.5C 171.914,155.709 171.414,156.043 171,156.5C 170.333,155.167 169.333,154.167 168,153.5C 166.307,155.027 164.473,156.36 162.5,157.5C 159.075,157.085 155.575,156.085 152,154.5C 149.333,155.167 146.667,155.833 144,156.5C 138.089,154.703 132.589,155.37 127.5,158.5C 126.188,156.264 126.521,154.264 128.5,152.5C 136.813,151.668 145.147,151.168 153.5,151C 154.551,149.615 155.884,148.615 157.5,148C 156.944,147.617 156.611,147.117 156.5,146.5C 159.214,145.042 162.214,144.042 165.5,143.5C 166.612,142.735 167.279,141.735 167.5,140.5C 168.609,140.443 169.609,140.11 170.5,139.5C 172.338,138.898 174.171,138.565 176,138.5C 176.29,140.044 176.956,141.377 178,142.5C 178.5,142 179,141.5 179.5,141C 177.982,138.075 178.649,135.742 181.5,134C 181.167,133.667 180.833,133.333 180.5,133C 182.436,130.963 184.102,128.797 185.5,126.5C 186.799,127.09 187.632,128.09 188,129.5C 190.173,127.17 192.673,126.837 195.5,128.5C 197.16,127.213 198.826,125.88 200.5,124.5C 201.386,125.325 201.719,126.325 201.5,127.5 Z"/></g>
<g><path style="opacity:1" fill="#3494c9" d="M 309.5,119.5 C 311.235,123.041 312.569,126.707 313.5,130.5C 314.314,135.119 314.647,139.786 314.5,144.5C 313.455,145.878 312.122,146.878 310.5,147.5C 311.958,144.688 312.958,141.688 313.5,138.5C 310.867,132.607 309.533,126.273 309.5,119.5 Z"/></g>
<g><path style="opacity:1" fill="#429dcd" d="M 183.5,121.5 C 183.57,128.723 180.236,133.389 173.5,135.5C 177.221,131.112 180.555,126.445 183.5,121.5 Z"/></g>
<g><path style="opacity:1" fill="#c0eafa" d="M 313.5,130.5 C 315.047,132.807 315.713,135.473 315.5,138.5C 315.495,140.696 315.162,142.696 314.5,144.5C 314.647,139.786 314.314,135.119 313.5,130.5 Z"/></g>
<g><path style="opacity:1" fill="#8ac8e6" d="M 200.5,135.5 C 199.551,137.777 198.218,139.777 196.5,141.5C 196.622,138.708 197.956,136.708 200.5,135.5 Z"/></g>
<g><path style="opacity:1" fill="#5badd7" d="M 171.5,135.5 C 172.167,135.5 172.833,135.5 173.5,135.5C 172.5,136.833 171.5,138.167 170.5,139.5C 169.609,140.11 168.609,140.443 167.5,140.5C 166.833,140.5 166.167,140.5 165.5,140.5C 167.5,138.833 169.5,137.167 171.5,135.5 Z"/></g>
<g><path style="opacity:1" fill="#d7f7fd" d="M 171.5,135.5 C 169.5,137.167 167.5,138.833 165.5,140.5C 161.667,142.997 157.333,144.33 152.5,144.5C 140.167,144.5 127.833,144.5 115.5,144.5C 116.209,143.596 117.209,143.263 118.5,143.5C 129.838,143.667 141.172,143.5 152.5,143C 157.111,142.529 161.111,140.863 164.5,138C 166.65,136.589 168.984,135.755 171.5,135.5 Z"/></g>
<g><path style="opacity:1" fill="#74b5d3" d="M 115.5,144.5 C 127.833,144.5 140.167,144.5 152.5,144.5C 140.678,145.495 128.678,145.828 116.5,145.5C 116.5,152.167 116.5,158.833 116.5,165.5C 140.006,165.169 163.339,165.502 186.5,166.5C 162.833,166.5 139.167,166.5 115.5,166.5C 115.5,159.167 115.5,151.833 115.5,144.5 Z"/></g>
<g><path style="opacity:1" fill="#afebfc" d="M 196.5,141.5 C 196.461,142.583 196.127,143.583 195.5,144.5C 196.243,145.182 196.909,145.849 197.5,146.5C 196.167,146.5 194.833,146.5 193.5,146.5C 193.273,144.067 194.273,142.401 196.5,141.5 Z"/></g>
<g><path style="opacity:1" fill="#c3f1fc" d="M 292.5,136.5 C 293.167,138.167 293.833,139.833 294.5,141.5C 294.5,148.167 294.5,154.833 294.5,161.5C 293.467,153.345 292.8,145.012 292.5,136.5 Z"/></g>
<g><path style="opacity:1" fill="#0a95da" d="M 156.5,146.5 C 156.611,147.117 156.944,147.617 157.5,148C 155.884,148.615 154.551,149.615 153.5,151C 145.147,151.168 136.813,151.668 128.5,152.5C 126.521,154.264 126.188,156.264 127.5,158.5C 132.589,155.37 138.089,154.703 144,156.5C 146.667,155.833 149.333,155.167 152,154.5C 155.575,156.085 159.075,157.085 162.5,157.5C 164.473,156.36 166.307,155.027 168,153.5C 169.333,154.167 170.333,155.167 171,156.5C 171.414,156.043 171.914,155.709 172.5,155.5C 174.12,158.058 175.62,158.058 177,155.5C 180.333,156.167 183.667,156.833 187,157.5C 188,157.167 189,156.833 190,156.5C 191.085,157.293 192.252,157.96 193.5,158.5C 194.881,156.034 194.381,154.034 192,152.5C 191.235,150.934 191.402,149.601 192.5,148.5C 198.845,149.681 204.845,151.681 210.5,154.5C 210.611,155.117 210.944,155.617 211.5,156C 209.709,156.415 208.376,157.415 207.5,159C 202.937,159.39 198.604,160.557 194.5,162.5C 193.09,162.132 192.09,161.299 191.5,160C 190,159.833 188.5,159.667 187,159.5C 176.603,160.659 165.77,161.326 154.5,161.5C 145.338,161.472 136.338,160.806 127.5,159.5C 126.481,160.687 125.314,161.687 124,162.5C 120.943,158.779 121.11,155.112 124.5,151.5C 124.291,150.914 123.957,150.414 123.5,150C 131.521,149.832 139.521,149.332 147.5,148.5C 137.856,147.502 128.19,147.168 118.5,147.5C 118.768,149.099 118.434,150.432 117.5,151.5C 117.5,149.833 117.5,148.167 117.5,146.5C 130.5,146.5 143.5,146.5 156.5,146.5 Z"/></g>
<g><path style="opacity:1" fill="#3394c6" d="M 295.5,141.5 C 296.167,146.681 296.833,152.015 297.5,157.5C 298.357,156.264 299.023,154.931 299.5,153.5C 302.861,152.972 305.194,151.139 306.5,148C 307.793,147.51 309.127,147.343 310.5,147.5C 310.672,148.492 310.338,149.158 309.5,149.5C 305.46,153.542 301.127,157.209 296.5,160.5C 295.51,154.355 295.177,148.022 295.5,141.5 Z"/></g>
<g><path style="opacity:1" fill="#66b2d5" d="M 294.5,141.5 C 294.833,141.5 295.167,141.5 295.5,141.5C 295.177,148.022 295.51,154.355 296.5,160.5C 296.158,161.338 295.492,161.672 294.5,161.5C 294.5,154.833 294.5,148.167 294.5,141.5 Z"/></g>
<g><path style="opacity:1" fill="#ddf9fd" d="M 212.5,152.5 C 215.805,153.285 218.805,154.785 221.5,157C 223.373,159.209 225.54,161.042 228,162.5C 228.483,163.448 228.649,164.448 228.5,165.5C 223.724,160.382 218.391,156.048 212.5,152.5 Z"/></g>
<g><path style="opacity:1" fill="#d9f5fc" d="M 309.5,149.5 C 305.864,154.305 302.031,158.972 298,163.5C 296.698,162.915 295.531,162.249 294.5,161.5C 295.492,161.672 296.158,161.338 296.5,160.5C 301.127,157.209 305.46,153.542 309.5,149.5 Z"/></g>
<g><path style="opacity:1" fill="#edfefe" d="M 118.5,143.5 C 117.209,143.263 116.209,143.596 115.5,144.5C 115.5,151.833 115.5,159.167 115.5,166.5C 114.292,165.766 112.959,165.433 111.5,165.5C 112.457,164.009 113.123,162.176 113.5,160C 113.463,157.581 112.796,155.915 111.5,155C 111.667,154.167 111.833,153.333 112,152.5C 112.333,152.833 112.667,153.167 113,153.5C 113.333,150.167 113.667,146.833 114,143.5C 115.616,142.199 117.116,142.199 118.5,143.5 Z"/></g>
<g><path style="opacity:1" fill="#3c98c9" d="M 203.5,125.5 C 202.508,128.823 201.508,132.156 200.5,135.5C 197.956,136.708 196.622,138.708 196.5,141.5C 194.273,142.401 193.273,144.067 193.5,146.5C 194.833,146.5 196.167,146.5 197.5,146.5C 202.535,148.176 207.535,150.176 212.5,152.5C 218.391,156.048 223.724,160.382 228.5,165.5C 230.376,169.288 232.709,172.621 235.5,175.5C 235.5,175.833 235.5,176.167 235.5,176.5C 240.815,185.779 242.648,195.779 241,206.5C 239.989,207.337 238.822,207.67 237.5,207.5C 237.821,205.952 238.821,205.285 240.5,205.5C 240.718,200.789 240.385,196.122 239.5,191.5C 237.746,185.45 235.246,179.783 232,174.5C 229.744,171.605 227.577,168.605 225.5,165.5C 220.291,162.027 215.291,158.36 210.5,154.5C 204.845,151.681 198.845,149.681 192.5,148.5C 192.244,142.779 194.411,137.779 199,133.5C 199.938,131.512 200.772,129.512 201.5,127.5C 202.167,126.833 202.833,126.167 203.5,125.5 Z"/></g>
<g><path style="opacity:1" fill="#248cbf" d="M 165.5,140.5 C 166.167,140.5 166.833,140.5 167.5,140.5C 167.279,141.735 166.612,142.735 165.5,143.5C 162.214,144.042 159.214,145.042 156.5,146.5C 143.5,146.5 130.5,146.5 117.5,146.5C 117.5,148.167 117.5,149.833 117.5,151.5C 117.5,155.833 117.5,160.167 117.5,164.5C 142.169,164.333 166.836,164.5 191.5,165C 192.056,165.383 192.389,165.883 192.5,166.5C 190.5,166.5 188.5,166.5 186.5,166.5C 163.339,165.502 140.006,165.169 116.5,165.5C 116.5,158.833 116.5,152.167 116.5,145.5C 128.678,145.828 140.678,145.495 152.5,144.5C 157.333,144.33 161.667,142.997 165.5,140.5 Z"/></g>
<g><path style="opacity:1" fill="#d5f6fd" d="M 228.5,165.5 C 232.268,167.753 234.601,171.086 235.5,175.5C 232.709,172.621 230.376,169.288 228.5,165.5 Z"/></g>
<g><path style="opacity:1" fill="#e6fdfe" d="M 115.5,166.5 C 139.167,166.5 162.833,166.5 186.5,166.5C 188.5,166.5 190.5,166.5 192.5,166.5C 193.5,167.167 194.5,167.833 195.5,168.5C 200.639,170.3 204.972,173.3 208.5,177.5C 207.127,177.657 205.793,177.49 204.5,177C 201.517,172.884 197.517,170.217 192.5,169C 166.678,168.022 141.011,167.189 115.5,166.5 Z"/></g>
<g><path style="opacity:1" fill="#0d8cce" d="M 104.5,78.5 C 104.833,78.5 105.167,78.5 105.5,78.5C 105.5,133.167 105.5,187.833 105.5,242.5C 103.447,242.598 101.78,241.931 100.5,240.5C 101.833,240.5 103.167,240.5 104.5,240.5C 104.5,186.5 104.5,132.5 104.5,78.5 Z"/></g>
<g><path style="opacity:1" fill="#3294c9" d="M 105.5,77.5 C 105.833,77.5 106.167,77.5 106.5,77.5C 106.5,132.833 106.5,188.167 106.5,243.5C 100.998,243.222 95.9983,241.555 91.5,238.5C 90.3406,236.75 88.674,235.75 86.5,235.5C 86.5,235.167 86.5,234.833 86.5,234.5C 86.5,231.833 86.5,229.167 86.5,226.5C 86.8333,226.5 87.1667,226.5 87.5,226.5C 87.2053,228.735 87.5386,230.735 88.5,232.5C 88.3691,233.376 88.7025,234.043 89.5,234.5C 93.4879,236.319 97.1545,238.319 100.5,240.5C 101.78,241.931 103.447,242.598 105.5,242.5C 105.5,187.833 105.5,133.167 105.5,78.5C 105.5,78.1667 105.5,77.8333 105.5,77.5 Z"/></g>
<g><path style="opacity:1" fill="#5ca6be" d="M 315.5,175.5 C 314.833,176.5 314.167,177.5 313.5,178.5C 313.631,177.761 313.464,177.094 313,176.5C 311.961,177.71 310.794,178.71 309.5,179.5C 309.733,177.938 310.4,176.605 311.5,175.5C 312.794,174.71 313.961,173.71 315,172.5C 315.483,173.448 315.649,174.448 315.5,175.5 Z"/></g>
<g><path style="opacity:1" fill="#989898" d="M 85.5,165.5 C 85.5,166.833 85.5,168.167 85.5,169.5C 82.9438,170.543 80.7772,172.21 79,174.5C 77.5787,177.009 75.9121,179.343 74,181.5C 71.004,187.382 68.504,193.382 66.5,199.5C 65.9695,197.076 65.1362,194.743 64,192.5C 63.0514,196.378 61.8847,196.378 60.5,192.5C 59.16,193.867 57.8267,195.2 56.5,196.5C 56.5569,195.391 56.8902,194.391 57.5,193.5C 65.0526,182.403 74.386,173.07 85.5,165.5 Z"/></g>
<g><path style="opacity:1" fill="#dcf7fd" d="M 235.5,176.5 C 236.376,176.369 237.043,176.702 237.5,177.5C 241.802,186.84 244.136,196.674 244.5,207C 241.163,210.011 237.163,211.511 232.5,211.5C 233.945,209.937 235.611,208.604 237.5,207.5C 238.822,207.67 239.989,207.337 241,206.5C 242.648,195.779 240.815,185.779 235.5,176.5 Z"/></g>
<g><path style="opacity:1" fill="#3998cc" d="M 195.5,168.5 C 198.522,168.804 201.522,169.304 204.5,170C 208.341,174.173 212.507,178.007 217,181.5C 219.252,186.591 220.418,191.925 220.5,197.5C 220.167,197.5 219.833,197.5 219.5,197.5C 218.95,189.062 215.283,182.395 208.5,177.5C 204.972,173.3 200.639,170.3 195.5,168.5 Z"/></g>
<g><path style="opacity:1" fill="#dcf8fe" d="M 315.5,175.5 C 314.87,182.743 312.87,189.41 309.5,195.5C 309.517,193.435 309.85,191.435 310.5,189.5C 311.664,185.989 312.664,182.323 313.5,178.5C 314.167,177.5 314.833,176.5 315.5,175.5 Z"/></g>
<g><path style="opacity:1" fill="#85c7e4" d="M 306.5,183.5 C 305.233,185.773 303.567,187.773 301.5,189.5C 302.073,186.593 303.739,184.593 306.5,183.5 Z"/></g>
<g><path style="opacity:1" fill="#0b94db" d="M 210.5,154.5 C 215.291,158.36 220.291,162.027 225.5,165.5C 227.577,168.605 229.744,171.605 232,174.5C 235.246,179.783 237.746,185.45 239.5,191.5C 240.385,196.122 240.718,200.789 240.5,205.5C 238.821,205.285 237.821,205.952 237.5,207.5C 235.611,208.604 233.945,209.937 232.5,211.5C 228.616,211.424 224.95,212.09 221.5,213.5C 221.821,207.974 221.488,202.64 220.5,197.5C 220.418,191.925 219.252,186.591 217,181.5C 212.507,178.007 208.341,174.173 204.5,170C 201.522,169.304 198.522,168.804 195.5,168.5C 194.5,167.833 193.5,167.167 192.5,166.5C 192.389,165.883 192.056,165.383 191.5,165C 166.836,164.5 142.169,164.333 117.5,164.5C 117.5,160.167 117.5,155.833 117.5,151.5C 118.434,150.432 118.768,149.099 118.5,147.5C 128.19,147.168 137.856,147.502 147.5,148.5C 139.521,149.332 131.521,149.832 123.5,150C 123.957,150.414 124.291,150.914 124.5,151.5C 121.11,155.112 120.943,158.779 124,162.5C 125.314,161.687 126.481,160.687 127.5,159.5C 136.338,160.806 145.338,161.472 154.5,161.5C 165.77,161.326 176.603,160.659 187,159.5C 188.5,159.667 190,159.833 191.5,160C 192.09,161.299 193.09,162.132 194.5,162.5C 198.604,160.557 202.937,159.39 207.5,159C 208.376,157.415 209.709,156.415 211.5,156C 210.944,155.617 210.611,155.117 210.5,154.5 Z"/></g>
<g><path style="opacity:1" fill="#2c93ca" d="M 313.5,178.5 C 312.664,182.323 311.664,185.989 310.5,189.5C 310.297,181.965 308.63,181.632 305.5,188.5C 306.911,190.017 306.744,191.351 305,192.5C 304.692,191.692 304.192,191.025 303.5,190.5C 296.756,198.234 290.09,205.9 283.5,213.5C 279.555,215.455 275.888,217.789 272.5,220.5C 277.833,215.167 283.167,209.833 288.5,204.5C 291.573,202.431 293.906,199.764 295.5,196.5C 295.5,195.833 295.833,195.5 296.5,195.5C 298.914,194.089 300.581,192.089 301.5,189.5C 303.567,187.773 305.233,185.773 306.5,183.5C 306.738,181.596 307.738,180.262 309.5,179.5C 310.794,178.71 311.961,177.71 313,176.5C 313.464,177.094 313.631,177.761 313.5,178.5 Z"/></g>
<g><path style="opacity:1" fill="#409cca" d="M 310.5,189.5 C 309.85,191.435 309.517,193.435 309.5,195.5C 309.167,195.5 308.833,195.5 308.5,195.5C 307.833,196.167 307.167,196.833 306.5,197.5C 306.259,193.981 307.593,191.315 310.5,189.5 Z"/></g>
<g><path style="opacity:1" fill="#79c3e4" d="M 301.5,189.5 C 300.581,192.089 298.914,194.089 296.5,195.5C 297.473,192.865 299.14,190.865 301.5,189.5 Z"/></g>
<g><path style="opacity:1" fill="#efeeef" d="M 332.5,138.5 C 332.509,140.308 332.009,141.975 331,143.5C 329.147,145.903 327.314,148.236 325.5,150.5C 310.044,167.467 293.711,184.3 276.5,201C 242.281,232.446 202.948,255.113 158.5,269C 142.618,271.986 126.618,273.319 110.5,273C 94.8348,272.172 80.5015,267.506 67.5,259C 46.795,240.723 42.795,219.223 55.5,194.5C 55.3764,193.893 55.0431,193.56 54.5,193.5C 55.3478,192.375 56.3478,192.375 57.5,193.5C 56.8902,194.391 56.5569,195.391 56.5,196.5C 44.8592,223.438 51.5259,244.604 76.5,260C 90.284,267.132 104.951,270.299 120.5,269.5C 140.722,268.888 160.389,265.388 179.5,259C 216.902,242.732 250.569,220.732 280.5,193C 298.767,175.57 316.1,157.403 332.5,138.5 Z"/></g>
<g><path style="opacity:1" fill="#f0f7f6" d="M 311.5,175.5 C 310.4,176.605 309.733,177.938 309.5,179.5C 307.738,180.262 306.738,181.596 306.5,183.5C 303.739,184.593 302.073,186.593 301.5,189.5C 299.14,190.865 297.473,192.865 296.5,195.5C 295.833,195.5 295.5,195.833 295.5,196.5C 292.427,198.569 290.094,201.236 288.5,204.5C 283.167,209.833 277.833,215.167 272.5,220.5C 269.833,222.833 267.167,225.167 264.5,227.5C 252.693,237.664 240.693,247.331 228.5,256.5C 227.508,256.328 226.842,256.662 226.5,257.5C 222.027,259.905 217.694,262.571 213.5,265.5C 212.878,263.878 211.878,262.545 210.5,261.5C 246.08,238.937 277.413,211.27 304.5,178.5C 306.434,176.703 308.767,175.703 311.5,175.5 Z"/></g>
<g><path style="opacity:1" fill="#b5e6f5" d="M 308.5,195.5 C 308.834,198.491 307.834,200.824 305.5,202.5C 306.038,200.883 306.371,199.216 306.5,197.5C 307.167,196.833 307.833,196.167 308.5,195.5 Z"/></g>
<g><path style="opacity:1" fill="#73bcdf" d="M 295.5,196.5 C 293.906,199.764 291.573,202.431 288.5,204.5C 290.094,201.236 292.427,198.569 295.5,196.5 Z"/></g>
<g><path style="opacity:1" fill="#d7f3fb" d="M 305.5,202.5 C 305.105,207.64 303.271,212.307 300,216.5C 299.184,217.823 298.017,218.489 296.5,218.5C 298.579,214.007 300.912,209.674 303.5,205.5C 304.167,204.5 304.833,203.5 305.5,202.5 Z"/></g>
<g><path style="opacity:1" fill="#2f91c6" d="M 303.5,205.5 C 300.912,209.674 298.579,214.007 296.5,218.5C 292.487,222.515 288.821,226.848 285.5,231.5C 281.742,235.592 277.409,238.926 272.5,241.5C 277.682,234.481 283.848,228.148 291,222.5C 294.755,217.997 297.755,212.997 300,207.5C 300.816,206.177 301.983,205.511 303.5,205.5 Z"/></g>
<g><path style="opacity:1" fill="#d5f4fc" d="M 285.5,231.5 C 285.649,232.552 285.483,233.552 285,234.5C 281.5,236.667 278.667,239.5 276.5,243C 273.184,244.602 269.851,246.102 266.5,247.5C 268.249,245.484 270.249,243.818 272.5,242.5C 272.5,242.167 272.5,241.833 272.5,241.5C 277.409,238.926 281.742,235.592 285.5,231.5 Z"/></g>
<g><path style="opacity:1" fill="#0f94db" d="M 310.5,189.5 C 307.593,191.315 306.259,193.981 306.5,197.5C 306.371,199.216 306.038,200.883 305.5,202.5C 304.833,203.5 304.167,204.5 303.5,205.5C 301.983,205.511 300.816,206.177 300,207.5C 297.755,212.997 294.755,217.997 291,222.5C 283.848,228.148 277.682,234.481 272.5,241.5C 272.5,241.833 272.5,242.167 272.5,242.5C 267.529,243.961 262.862,246.128 258.5,249C 257.177,249.816 256.511,250.983 256.5,252.5C 253.746,253.641 251.079,254.975 248.5,256.5C 246.62,256.229 245.287,256.896 244.5,258.5C 243.167,258.5 241.833,258.5 240.5,258.5C 235.88,259.58 231.213,260.58 226.5,261.5C 225.833,261.167 225.167,260.833 224.5,260.5C 225.193,259.482 225.859,258.482 226.5,257.5C 226.842,256.662 227.508,256.328 228.5,256.5C 231.768,256.366 234.102,254.866 235.5,252C 238.559,251.942 240.892,250.609 242.5,248C 244.134,247.506 245.801,247.34 247.5,247.5C 247.351,246.448 247.517,245.448 248,244.5C 253.403,240.098 258.736,235.431 264,230.5C 264.483,229.552 264.649,228.552 264.5,227.5C 267.167,225.167 269.833,222.833 272.5,220.5C 275.888,217.789 279.555,215.455 283.5,213.5C 290.09,205.9 296.756,198.234 303.5,190.5C 304.192,191.025 304.692,191.692 305,192.5C 306.744,191.351 306.911,190.017 305.5,188.5C 308.63,181.632 310.297,181.965 310.5,189.5 Z"/></g>
<g><path style="opacity:1" fill="#3b97ca" d="M 264.5,227.5 C 264.649,228.552 264.483,229.552 264,230.5C 258.736,235.431 253.403,240.098 248,244.5C 247.517,245.448 247.351,246.448 247.5,247.5C 245.801,247.34 244.134,247.506 242.5,248C 240.892,250.609 238.559,251.942 235.5,252C 234.102,254.866 231.768,256.366 228.5,256.5C 240.693,247.331 252.693,237.664 264.5,227.5 Z"/></g>
<g><path style="opacity:1" fill="#3991c7" d="M 272.5,242.5 C 270.249,243.818 268.249,245.484 266.5,247.5C 263.167,249.167 259.833,250.833 256.5,252.5C 256.511,250.983 257.177,249.816 258.5,249C 262.862,246.128 267.529,243.961 272.5,242.5 Z"/></g>
<g><path style="opacity:1" fill="#d8f3fb" d="M 266.5,247.5 C 266.719,248.675 266.386,249.675 265.5,250.5C 260.285,253.745 254.618,255.745 248.5,256.5C 251.079,254.975 253.746,253.641 256.5,252.5C 259.833,250.833 263.167,249.167 266.5,247.5 Z"/></g>
<g><path style="opacity:1" fill="#939192" d="M 335.5,132.5 C 335.833,132.5 336.167,132.5 336.5,132.5C 334.774,134.228 333.441,136.228 332.5,138.5C 316.1,157.403 298.767,175.57 280.5,193C 250.569,220.732 216.902,242.732 179.5,259C 160.389,265.388 140.722,268.888 120.5,269.5C 104.951,270.299 90.284,267.132 76.5,260C 51.5259,244.604 44.8592,223.438 56.5,196.5C 57.8267,195.2 59.16,193.867 60.5,192.5C 61.8847,196.378 63.0514,196.378 64,192.5C 65.1362,194.743 65.9695,197.076 66.5,199.5C 65.798,230.85 81.1314,248.683 112.5,253C 135.094,254.426 157.094,251.426 178.5,244C 191.17,238.644 203.837,232.977 216.5,227C 260.157,200.799 299.824,169.299 335.5,132.5 Z"/></g>
<g><path style="opacity:1" fill="#97d2ee" d="M 248.5,256.5 C 247.486,257.674 246.153,258.34 244.5,258.5C 245.287,256.896 246.62,256.229 248.5,256.5 Z"/></g>
<g><path style="opacity:1" fill="#3f96c4" d="M 226.5,257.5 C 225.859,258.482 225.193,259.482 224.5,260.5C 225.167,260.833 225.833,261.167 226.5,261.5C 231.213,260.58 235.88,259.58 240.5,258.5C 240.38,259.586 239.713,260.253 238.5,260.5C 234.367,261.512 230.367,262.512 226.5,263.5C 222.494,263.748 218.661,264.748 215,266.5C 214.235,266.43 213.735,266.097 213.5,265.5C 217.694,262.571 222.027,259.905 226.5,257.5 Z"/></g>
<g><path style="opacity:1" fill="#bbe8f3" d="M 226.5,263.5 C 221.722,266.806 216.388,267.973 210.5,267C 211.244,265.961 212.244,265.461 213.5,265.5C 213.735,266.097 214.235,266.43 215,266.5C 218.661,264.748 222.494,263.748 226.5,263.5 Z"/></g>
<g><path style="opacity:1" fill="#929191" d="M 325.5,150.5 C 318.853,160.14 311.853,169.473 304.5,178.5C 277.413,211.27 246.08,238.937 210.5,261.5C 203.632,264.183 197.132,267.517 191,271.5C 174.21,278.743 156.71,283.91 138.5,287C 124.534,288.509 110.534,288.842 96.5,288C 81.1138,286.206 67.1138,280.873 54.5,272C 33.8186,254.248 29.6519,233.082 42,208.5C 45.9937,203.341 50.1603,198.341 54.5,193.5C 55.0431,193.56 55.3764,193.893 55.5,194.5C 42.795,219.223 46.795,240.723 67.5,259C 80.5015,267.506 94.8348,272.172 110.5,273C 126.618,273.319 142.618,271.986 158.5,269C 202.948,255.113 242.281,232.446 276.5,201C 293.711,184.3 310.044,167.467 325.5,150.5 Z"/></g>
<g><path style="opacity:1" fill="#c1f2fc" d="M 86.5,235.5 C 88.674,235.75 90.3406,236.75 91.5,238.5C 88.9664,238.741 87.2998,237.741 86.5,235.5 Z"/></g>
<g><path style="opacity:1" fill="#53a6ce" d="M 220.5,197.5 C 221.488,202.64 221.821,207.974 221.5,213.5C 224.95,212.09 228.616,211.424 232.5,211.5C 230.46,212.942 228.127,213.942 225.5,214.5C 224.702,214.957 224.369,215.624 224.5,216.5C 222.883,217.038 221.216,217.371 219.5,217.5C 220.331,210.869 220.664,204.202 220.5,197.5 Z"/></g>
<g><path style="opacity:1" fill="#d3f6fc" d="M 219.5,197.5 C 219.833,197.5 220.167,197.5 220.5,197.5C 220.664,204.202 220.331,210.869 219.5,217.5C 221.216,217.371 222.883,217.038 224.5,216.5C 223.01,218.28 221.01,218.946 218.5,218.5C 219.165,211.52 219.498,204.52 219.5,197.5 Z"/></g>
</svg>
