<svg xmlns="http://www.w3.org/2000/svg" xmlns:xlink="http://www.w3.org/1999/xlink" version="1.1" x="0px" y="0px" viewBox="0 0 512 640" style="enable-background:new 0 0 512 512;" xml:space="preserve"><title>Telecommunications-communication-broadcast-telecom-wireless</title><path d="M64,160c0-22.1,17.9-40,40-40c14.3,0,27.5,7.6,34.6,20l13.8-8C137,105.2,102.8,96,76,111.5S40,161.2,55.5,188  c3,5.1,6.7,9.8,11.2,13.7l10.7-11.9C68.9,182.2,64,171.4,64,160z"/><path d="M104,88c15.6,0,30.8,5,43.2,14.4l9.6-12.8c-38.9-29.2-94-21.3-123.2,17.6C7.5,142,10.7,190.6,41.2,221.6l11.4-11.2  c-27.8-28.4-27.4-74,1-101.8C67.1,95.4,85.2,88,104,88z"/><path d="M472,424h-1.8L441,307c2.9-2.5,5.8-5.1,8.6-7.9c30.5-30.3,47.2-68.7,47.2-108.2c0-37-15.2-72.6-42.8-100.2  c-0.8-1.8-2-3.5-3.4-5c-2.5-2.6-7.1-5.7-14.9-5.7c-22.8,0-61.4,26.8-96.5,58.8l-43.3-23.6c0.1-1,0.2-2.1,0.2-3.2  c0-17.7-14.3-32-32-32s-32,14.3-32,32s14.3,32,32,32c1.1,0,2.1-0.1,3.2-0.2l24.1,44.3c-16.5,19.1-30.6,38.1-40.9,55.3  c-4.9-7.3-10.4-14.2-16.4-20.6c12.4-16.4,21.6-31.5,26.4-43.9l-14.9-5.7c-8,20.9-31.7,52.5-61.7,82.6  c-21.7,21.7-44.2,40.1-63.5,51.9c-21.7,13.3-30.7,12.9-31.9,12.1c-0.8-1.2-1.3-10.2,12-31.9c8.5-13.8,20.4-29.3,34.4-45l10.4,17.3  l13.7-8.2l-12.7-21.2c2-2.1,4.1-4.2,6.2-6.3c7.6-7.6,15.4-14.9,23.2-21.7l20.4,12.2l8.2-13.7l-76.6-46c-2.7-13-15.4-21.4-28.3-18.7  s-21.4,15.4-18.7,28.3c1.9,9.4,9.3,16.8,18.7,18.7l27,45c-16.7,18.3-30.8,36.5-40.5,52.6C71.1,305.4,68.2,322.2,77,331  c1.9,1.9,4.3,3.3,7,4.1c24.4,21.4,55.8,33.1,88.2,32.9c0.5,0,1,0,1.5,0c10.2-0.1,20.4-1.4,30.3-3.7L186,424h-18  c-13.2,0-24,10.8-24,24v48h176v-48c0-13.2-10.8-24-24-24h-17.1l-14.3-92.8c1.6-1.5,3.1-3,4.6-4.6c22.1,11.5,46.6,17.5,71.5,17.4  c0.6,0,1.2,0,1.8,0c17.7-0.2,35.3-3.4,51.9-9.5l-32,89.6H360c-13.2,0-24,10.8-24,24v48h160v-48C496,434.8,485.2,424,472,424z   M104,168c-4.4,0-8-3.6-8-8s3.6-8,8-8s8,3.6,8,8C112,164.4,108.4,168,104,168z M116.1,180.7c3.5-2.1,6.5-5,8.5-8.5l36.4,21.9  c-6.8,6-13.5,12.4-20.1,19c-1.1,1.1-2.3,2.3-3.4,3.4L116.1,180.7z M480.8,191c0,27.9-9.5,55.4-27.2,79.2  c-2.2-12.1-5.6-23.9-10.3-35.3c14.7-19.7,26.8-41.3,35.9-64.2C480.2,177.3,480.8,184.1,480.8,191z M453.7,114.4  c7.2,9.1,13.2,19.2,17.7,29.9l-2.2,6.7c-8,24-19.4,46.6-33.8,67.3c-6.4-11.9-14.3-23.1-23.3-33.2c10.3-12.9,19.6-26.5,28-40.7  C446.7,133,451.3,123,453.7,114.4z M431.6,249.3c3.6,10.3,6.1,21,7.4,31.8l0.6,5.2c-0.5,0.5-1,1-1.4,1.5c-3,3-6.1,5.8-9.4,8.5  l-17.1,1.7c-10.1,1-20.3,0-30-3C400.2,281.8,416.9,266.5,431.6,249.3z M364.9,287.2c-10.4-6.4-19.1-15.3-25.2-25.8  c12.2-10.7,24.3-22.2,35.3-33.6c9.6-9.9,18.6-20,26.9-30c9.1,10.5,16.8,22.2,22.8,34.8C407.7,253.8,387.5,272.2,364.9,287.2z   M264,128c-8.8,0-16-7.2-16-16s7.2-16,16-16c8.8,0,16,7.2,16,16C280,120.8,272.8,128,264,128z M282.3,138.2c3.1-2.2,5.7-4.8,7.9-7.9  l36.7,20c-4.8,4.6-9.4,9.3-13.9,13.9c-3.6,3.7-7,7.4-10.4,11.1L282.3,138.2z M195,267c10.5-10.5,20.2-21.2,28.9-31.5  c6.7,7.4,12.6,15.4,17.7,23.9c-3.3,6.5-6,13.4-7.9,20.5c-13,13.1-27.3,24.7-42.8,34.7c-8.7-6.4-15.8-14.7-20.9-24.2  C178.3,283.1,186.7,275.3,195,267z M245.1,311c3.2,2.5,6.5,4.9,9.9,7.2c-0.7,0.7-1.3,1.3-2,2c-3.1,3-6.4,5.8-9.9,8.4  c-12.5,1.5-25.1-0.3-36.7-5.2c9.7-6.7,18.9-14,27.7-21.9c0.8,1.8,1.9,3.4,3.3,4.8C239.5,308.5,242.2,310.1,245.1,311z M106.6,332.4  c7-2.8,13.8-6.2,20.2-10.1c10.7-6.5,20.9-13.7,30.6-21.6c4.9,8.5,11.2,16.2,18.7,22.6c-15.3,8.4-31.4,15.2-48.1,20.3  C120.5,340.7,113.4,336.9,106.6,332.4z M173.5,352c-0.5,0-0.9,0-1.4,0c-5.6,0-11.1-0.4-16.7-1.1c12.1-4.9,23.8-10.7,35.1-17.4  c8.2,4.7,17.1,8,26.4,9.9C203.1,348.9,188.4,351.9,173.5,352z M222.4,358.4c9.9-3.9,19.2-9.1,27.8-15.3l12.4,80.8h-59.9L222.4,358.4  z M296,440c4.4,0,8,3.6,8,8v32H160v-32c0-4.4,3.6-8,8-8H296z M252.3,296c-0.1,0-0.2,0-0.2,0c-1.3-1.1-2.7-2.3-4-3.4  c-0.4-4.8,1.6-16.1,13.7-37c9.3-16.1,22.3-34.1,37.7-52.4l13.5,24.7l14-7.7l-16.3-29.9c4.5-5,9.1-9.9,13.8-14.9  c5.8-6,11.5-11.7,17.1-17l30.5,16.7l7.7-14L354,146.9c37.2-33.2,68.3-50.9,81.7-50.9c1.6,0,2.9,0.3,3.4,0.8  c1.6,1.7,2.8,12.6-12.9,39.6c-14,24.2-36.3,52.7-62.8,80.2C313.8,268.2,269.1,296,252.3,296z M269.4,308.4  c16.7-6.2,37.2-19.8,57.9-36.6c6,9.5,13.7,17.9,22.7,24.6c-17.5,10-36.2,18-55.5,23.7C285.7,317.1,277.3,313.1,269.4,308.4z   M342.3,328c-0.5,0-1.1,0-1.6,0c-5.7,0-11.5-0.4-17.2-1.1c14.6-5.9,28.7-12.9,42.1-21.2c11.1,5.2,23.1,8.1,35.3,8.5  C382.6,323.1,362.6,327.8,342.3,328z M414.6,325.2c4.3-2.3,8.5-4.9,12.5-7.6L453.8,424h-74.4L414.6,325.2z M480,480H352v-32  c0-4.4,3.6-8,8-8h112c4.4,0,8,3.6,8,8V480z"/><path d="M264,64c15.7,0,30.4,7.7,39.4,20.6l13.1-9.2c-20.2-29-60.1-36.1-89.1-15.9s-36.1,60.1-15.9,89.1c4.3,6.2,9.7,11.6,15.9,15.9  l9.2-13.1c-21.8-15.1-27.1-45.1-12-66.8C233.6,71.7,248.3,64,264,64z"/><path d="M208.8,190.5l9.2-13.1C181.8,152,173.1,102.1,198.6,66S273.9,21.1,310,46.6c8.3,5.9,15.5,13.3,21,21.8l13.4-8.7  c-28.9-44.4-88.4-57-132.8-28.1s-57,88.4-28.1,132.8C190.2,174.6,198.8,183.5,208.8,190.5z"/><text x="0" y="527" fill="#000000" font-size="5px" font-weight="bold" font-family="'Helvetica Neue', Helvetica, Arial-Unicode, Arial, Sans-serif">Created by WiStudio</text><text x="0" y="532" fill="#000000" font-size="5px" font-weight="bold" font-family="'Helvetica Neue', Helvetica, Arial-Unicode, Arial, Sans-serif">from the Noun Project</text></svg>